<svg id="Layer_1" data-name="Layer 1" xmlns="http://www.w3.org/2000/svg" viewBox="0 0 22 24"><defs><style>.cls-1{fill:#fff;}</style></defs><title>ui-apple--white</title><path class="cls-1" d="M7.9,14A8.46,8.46,0,0,1,5,8C5,4.87,7.16,3.07,9.19,3a5,5,0,0,1,2.39.57,5.74,5.74,0,0,0-1.34-3L11.6,0a5.71,5.71,0,0,1,.76,2A4.12,4.12,0,0,1,13.84.35,4.11,4.11,0,0,1,16.36.08a3.46,3.46,0,0,1-1.49,2.07,4.19,4.19,0,0,1-2.39.46,8.08,8.08,0,0,1,.09.86A4.59,4.59,0,0,1,14.81,3c2,.07,4.19,1.87,4.19,5a8.46,8.46,0,0,1-2.9,6H23v2H3.5a.5.5,0,0,0,0,1H23v2H4.5a1.5,1.5,0,0,0,0,3H23v2H4.5a3.5,3.5,0,0,1-2.73-5.69A2.53,2.53,0,0,1,1,16.5,2.5,2.5,0,0,1,3.5,14ZM23,21H5V20H23ZM12,6A3.72,3.72,0,0,0,9.18,5C8.18,5.07,6.91,6.11,7,8.17a6.31,6.31,0,0,0,2.48,4.5A2.11,2.11,0,0,0,12,12.46l0,0a2.08,2.08,0,0,0,2.48.19A6.31,6.31,0,0,0,17,8.17c.09-2.06-1.18-3.1-2.18-3.17A4.15,4.15,0,0,0,12,6Zm1.75.55c1.18,1.32,1,2.56-.16,4.9a3.65,3.65,0,0,0,2-2.93A1.82,1.82,0,0,0,13.76,6.55Z" transform="translate(-1 0)"/></svg>