<?xml version="1.0" encoding="utf-8"?>
<!-- Generator: Adobe Illustrator 22.0.1, SVG Export Plug-In . SVG Version: 6.00 Build 0)  -->
<svg version="1.1" id="Layer_1" xmlns="http://www.w3.org/2000/svg" xmlns:xlink="http://www.w3.org/1999/xlink" x="0px" y="0px"
	 viewBox="0 0 24 24" style="enable-background:new 0 0 24 24;" xml:space="preserve">
<style type="text/css">
	.st0{fill:#1F2833;}
</style>
<path class="st0" d="M18.9,5.7c-0.5,1.4-0.5,1.1,0,2.6C19,8.4,19,8.6,19,8.7c0,0.4-0.2,0.9-0.6,1.2c-1.3,0.9-1.1,0.7-1.6,2.1
	c-0.2,0.6-0.8,1-1.4,1h0c-1.5,0-1.3-0.1-2.5,0.8C12.6,13.9,12.3,14,12,14s-0.6-0.1-0.9-0.3c-1.2-0.9-1-0.8-2.5-0.8h0
	c-0.6,0-1.2-0.4-1.4-1c-0.5-1.4-0.3-1.2-1.6-2.1C5.2,9.6,5,9.2,5,8.7c0-0.1,0-0.3,0.1-0.4c0.5-1.4,0.5-1.1,0-2.6C5,5.6,5,5.4,5,5.3
	c0-0.4,0.2-0.9,0.6-1.2c1.3-0.9,1.1-0.6,1.6-2.1c0.2-0.6,0.8-1,1.4-1h0c1.5,0,1.3,0.1,2.5-0.8C11.4,0.1,11.7,0,12,0s0.6,0.1,0.9,0.3
	c1.2,0.9,1,0.8,2.5,0.8h0c0.6,0,1.2,0.4,1.4,1c0.5,1.4,0.3,1.2,1.6,2.1C18.8,4.4,19,4.8,19,5.3C19,5.4,19,5.6,18.9,5.7z M17,7
	c0-2.8-2.2-5-5-5S7,4.2,7,7s2.2,5,5,5S17,9.8,17,7z M14,15v5l-1.9-1.5L10,20v-5H8v9l4-3l4,3v-9H14z M12,4c1.7,0,3,1.3,3,3
	s-1.3,3-3,3c-1.7,0-3-1.3-3-3S10.3,4,12,4z M12,3C9.8,3,8,4.8,8,7s1.8,4,4,4c2.2,0,4-1.8,4-4S14.2,3,12,3z"/>
</svg>
