<svg id="Layer_1" data-name="Layer 1" xmlns="http://www.w3.org/2000/svg" viewBox="0 0 24 24"><defs><style>.cls-1{fill:#fff;}</style></defs><title>ui-computer--white</title><path class="cls-1" d="M17,24H7V22.66A3.51,3.51,0,0,0,9,19H1a1,1,0,0,1-.71-.29A1,1,0,0,1,0,18V1A1,1,0,0,1,1,0H23a1,1,0,0,1,1,1V18a1,1,0,0,1-.29.71A1,1,0,0,1,23,19H15a3.53,3.53,0,0,0,2,3.66Zm-4-5H11a4.94,4.94,0,0,1-.72,3h3.5A4.85,4.85,0,0,1,13,19Zm9-5H2v3H22Zm-10,.54a1,1,0,1,1-1,1A1,1,0,0,1,12,14.54ZM2,2V12H22V2Z" transform="translate(0 0)"/></svg>