<svg id="Layer_1" data-name="Layer 1" xmlns="http://www.w3.org/2000/svg" viewBox="0 0 24 24"><defs><style>.cls-1{fill:#fff;}</style></defs><title>ui-open-book--white</title><path class="cls-1" d="M17.15,9.54A2.43,2.43,0,0,1,19.49,12v1.13c.38.08,1.76.36,2.14.45A3.1,3.1,0,0,1,24,16.89a7.33,7.33,0,0,1-1.13,3.41,4.5,4.5,0,0,0-.37,1.78V24H15.77a6.33,6.33,0,0,0-.41-2.44,13.49,13.49,0,0,0-2.46-2.91,2.5,2.5,0,0,1-.44-2.87,2.22,2.22,0,0,1,2.23-1.13c0-.9,0-1.81,0-2.71a2.42,2.42,0,0,1,2.46-2.4M20.59,22a6.66,6.66,0,0,1,.94-3.34,3.37,3.37,0,0,0,.56-1.77c0-.81-.26-1.15-.59-1.31a.36.36,0,0,0-.5.34v.49a.29.29,0,1,1-.58,0V15.6a.44.44,0,0,0-.33-.44.43.43,0,0,0-.51.44V16A.29.29,0,1,1,19,16v-.67a.44.44,0,0,0-.34-.44.43.43,0,0,0-.51.44v.31a.29.29,0,1,1-.57,0V12a.5.5,0,1,0-1,0v6.29c-.53-.69-1.43-1.69-2.06-1.69-.42,0-.57.37-.22.73C15.62,18.72,17.16,20,17.52,22ZM24,12.64c-.14-.11-.29-.21-.44-.31A5.44,5.44,0,0,0,22,11.7V2.11c-5.17.39-7.55,1.47-9,2.33V13a4,4,0,0,0-2,1.53V4.44C9.53,3.57,7.16,2.5,2,2.11v13.7a34.79,34.79,0,0,1,8.32,1.57,4,4,0,0,0,.25,1,4.64,4.64,0,0,0,1,1.57,3.35,3.35,0,0,1-.87-.26A28.74,28.74,0,0,0,0,17.71V0C4.58.14,9.06.88,12,2.71,14.94.88,19.42.14,24,0ZM4,13.73a28,28,0,0,1,6,1.67V14.34a31.64,31.64,0,0,0-6-1.63Zm0-2a27.39,27.39,0,0,1,6,1.67V12.31a30.91,30.91,0,0,0-6-1.63Zm0-2a27.39,27.39,0,0,1,6,1.67V10.28A30.91,30.91,0,0,0,4,8.65Zm0-2a27.39,27.39,0,0,1,6,1.67V8.25A30.22,30.22,0,0,0,4,6.62Zm16-1a30.22,30.22,0,0,0-6,1.63V9.31a27.39,27.39,0,0,1,6-1.67Zm-16-2A30.93,30.93,0,0,1,10,6.2V7.27A27.39,27.39,0,0,0,4,5.6Zm16,1a27.39,27.39,0,0,0-6,1.67V6.2a30.93,30.93,0,0,1,6-1.62Z" transform="translate(0 0)"/></svg>