<?xml version="1.0" encoding="utf-8"?>
<!-- Generator: Adobe Illustrator 22.0.1, SVG Export Plug-In . SVG Version: 6.00 Build 0)  -->
<svg version="1.1" id="Layer_1" xmlns="http://www.w3.org/2000/svg" xmlns:xlink="http://www.w3.org/1999/xlink" x="0px" y="0px"
	 viewBox="0 0 24 24" style="enable-background:new 0 0 24 24;" xml:space="preserve">
<style type="text/css">
	.st0{fill:#FFFFFF;}
</style>
<path class="st0" d="M3.6,1.3L6.4,0l4,7.9L7.8,9.2c-0.5,1.3,2.2,6.3,3.3,6.4c0.1-0.1,2.7-1.3,2.7-1.3l4.1,7.9c0,0-2.8,1.4-2.9,1.4
	C7.1,27.2-4.1,5.3,3.6,1.3z M5.5,2.6l-1,0.5c-5.3,2.8,4.2,21.2,9.6,18.7l1-0.5l-2.3-4.4l-1,0.5C8.7,19,3.6,9.2,6.8,7.5l1-0.5
	C7.8,7,5.5,2.6,5.5,2.6z M13.4,10.2l2.9,0.9c0.2-0.7,0.2-1.6-0.2-2.3c-0.4-0.7-1.1-1.2-1.8-1.5L13.4,10.2z M15.2,4.2
	c1.6,0.5,2.9,1.5,3.8,3.1c0.8,1.5,1,3.3,0.5,4.8l-1.8-0.5c0.3-1.1,0.2-2.3-0.4-3.4C16.7,7,15.7,6.3,14.6,6C14.6,6,15.2,4.2,15.2,4.2
	z M16.1,1c2.4,0.7,4.5,2.3,5.7,4.7c1.3,2.3,1.5,5,0.8,7.3l-1.8-0.5c0.6-1.9,0.4-4-0.6-5.9c-1-1.9-2.7-3.2-4.6-3.7
	C15.6,2.8,16.1,1,16.1,1z"/>
</svg>
