<svg id="Layer_1" data-name="Layer 1" xmlns="http://www.w3.org/2000/svg" viewBox="0 0 14 24"><defs><style>.cls-1{fill:#1F2833;}</style></defs><title>ui-award-2</title><path class="cls-1" d="M14.5,15H16v9l-4-3L8,24V15H9.46A3.88,3.88,0,0,0,12,16,3.67,3.67,0,0,0,14.5,15Zm4.43-6.72a1.31,1.31,0,0,1,.07.44,1.42,1.42,0,0,1-.61,1.16c-1.26.87-1.09.65-1.57,2.06a1.46,1.46,0,0,1-1.41,1h0c-1.55,0-1.28-.08-2.53.79A1.49,1.49,0,0,1,12,14a1.51,1.51,0,0,1-.88-.28c-1.24-.87-1-.79-2.52-.78h0a1.48,1.48,0,0,1-1.41-1c-.47-1.42-.31-1.2-1.56-2.07A1.41,1.41,0,0,1,5,8.72a1.31,1.31,0,0,1,.07-.44c.49-1.41.49-1.14,0-2.56A1.31,1.31,0,0,1,5,5.28a1.4,1.4,0,0,1,.62-1.16c1.25-.87,1.09-.65,1.56-2.07a1.48,1.48,0,0,1,1.41-1h0c1.54,0,1.27.1,2.52-.79a1.57,1.57,0,0,1,1.76,0c1.25.88,1,.8,2.52.79h0a1.48,1.48,0,0,1,1.41,1c.48,1.42.31,1.2,1.56,2.07A1.4,1.4,0,0,1,19,5.28a1.35,1.35,0,0,1-.07.44C18.44,7.13,18.44,6.86,18.93,8.28ZM15.5,5.48,14.42,4.4,11.13,7.77,9.58,6.31,8.5,7.39l2.63,2.55Z" transform="translate(-5 0)"/></svg>